<?xml version="1.0" encoding="utf-8"?>
<!-- Generator: Adobe Illustrator 16.0.0, SVG Export Plug-In . SVG Version: 6.00 Build 0)  -->
<!DOCTYPE svg PUBLIC "-//W3C//DTD SVG 1.1//EN" "http://www.w3.org/Graphics/SVG/1.1/DTD/svg11.dtd">
<svg version="1.1" id="Layer_1" xmlns="http://www.w3.org/2000/svg" xmlns:xlink="http://www.w3.org/1999/xlink" x="0px" y="0px"
	 width="50px" height="50px" viewBox="0 0 50 50" enable-background="new 0 0 50 50" xml:space="preserve">
<g>
	<polygon points="32.244,26.798 24.64,31.35 25.004,31.865 32.608,27.315 	"/>
	<polygon points="33.151,28.089 31.062,29.34 25.549,32.64 25.923,33.172 33.527,28.621 	"/>
	<path d="M23.249,23.867c-0.53,0.408-1.261,0.413-1.903,0.295l5.296,4.867l2.462-1.474l-1.915-6.502
		c-0.033,0.139-0.088,0.283-0.177,0.425c-0.243,0.389-0.666,0.651-1.256,0.778c-1.4,0.301-2.117-0.88-2.75-1.923
		c-0.078-0.129-0.156-0.257-0.235-0.384c-0.297-0.474-0.413-0.905-0.349-1.284c-0.006,0.002-0.013,0.003-0.018,0.004
		c-0.677,0.218-1.029,0.553-1.188,0.748c0.324,0.202,0.485,0.561,0.384,0.861c-0.076,0.229-0.297,0.372-0.561,0.362
		c-0.247-0.009-0.457-0.129-0.572-0.331c-0.069-0.123-0.104-0.271-0.102-0.429c-0.226,0.017-0.488,0.072-0.702,0.195
		c-0.246,0.139-0.358,0.337-0.342,0.597c0.025,0.357,0.137,0.597,0.344,0.735c0.447,0.299,1.29,0.098,1.65,0.012
		c1.015-0.243,1.889,0.047,2.339,0.777C24.129,22.97,23.604,23.623,23.249,23.867z"/>
	<path d="M19.854,23.649c-0.116-0.106-0.13-0.273-0.032-0.395c0.097-0.122,0.276-0.159,0.42-0.088c0.494,0.24,1.925,0.75,2.59,0.229
		c0.005-0.004,0.013-0.009,0.018-0.014c0.517-0.359,0.282-0.8,0.231-0.883c-0.409-0.662-1.178-0.591-1.6-0.491
		c-0.449,0.108-1.504,0.361-2.203-0.107c-0.372-0.248-0.578-0.647-0.615-1.188c-0.032-0.497,0.211-0.911,0.688-1.171
		c0.354-0.193,0.805-0.275,1.188-0.271c0.018-0.03,0.037-0.056,0.056-0.085c0.15-0.22,0.607-0.759,1.593-1.075
		c0.217-0.07,0.42-0.088,0.608-0.104c0.21-0.208,0.508-0.355,0.887-0.498c0.54-0.203,0.957,0.028,1.089,0.311
		c0.105,0.226,0.023,0.642-0.342,0.795C24.008,18.792,23.637,19,23.277,19c-0.047,0-0.093,0-0.14,0
		c-0.015,0-0.026-0.162-0.036-0.136c-0.093,0.255-0.014,0.377,0.239,0.78c0.081,0.13,0.161,0.261,0.24,0.392
		c0.689,1.136,1.169,1.812,2.025,1.628c0.404-0.087,0.685-0.252,0.833-0.489c0.178-0.285,0.137-0.626,0.084-0.785
		c-0.038-0.117-0.078-0.21-0.114-0.285c-0.009-0.009-0.017-0.019-0.021-0.026c-0.096,0.054-0.204,0.123-0.303,0.187
		c-0.326,0.209-0.542,0.349-0.774,0.294c-0.108-0.024-0.199-0.092-0.25-0.183c-0.045-0.081-0.084-0.21-0.019-0.379
		c0.135-0.349,0.659-0.66,0.825-0.726c0.198-0.081,0.403-0.081,0.592-0.001c0.062,0.027,0.124,0.062,0.18,0.104
		c0.055-0.097,0.09-0.163,0.091-0.164c0.06-0.115,0.189-0.183,0.327-0.17c0.137,0.011,0.252,0.101,0.287,0.223l2.34,7.945
		l1.903-1.14c-0.445-0.876-1.434-2.927-1.504-4.006c-0.019-0.281-0.034-0.571-0.051-0.865c-0.113-2.07-0.241-4.417-1.473-6.167
		c-2.518-3.578-7.725-4.6-11.605-2.278c-3.881,2.322-4.989,7.123-2.471,10.701c1.231,1.75,3.505,2.813,5.51,3.752
		c0.285,0.134,0.564,0.265,0.836,0.395c1.041,0.499,2.668,2.167,3.354,2.898l1.892-1.131L19.854,23.649z"/>
	<polygon points="31.504,33.408 32.543,30.553 35.043,30.774 34.073,29.396 28.759,32.575 26.468,33.946 27.445,35.335 
		28.253,33.121 	"/>
	<path d="M25,0.917C11.699,0.917,0.917,11.699,0.917,25S11.699,49.083,25,49.083S49.083,38.301,49.083,25S38.301,0.917,25,0.917z
		 M37.412,16.382c0.038,0.188-0.054,0.372-0.219,0.471c-0.054,0.032-0.114,0.055-0.183,0.065l-3.352,0.573
		c-0.271,0.046-0.531-0.119-0.583-0.37c-0.05-0.25,0.128-0.491,0.402-0.537l3.351-0.572C37.102,15.965,37.363,16.131,37.412,16.382z
		 M37.328,22.23c-0.028,0.125-0.109,0.227-0.217,0.291s-0.241,0.091-0.377,0.064l-3.333-0.654c-0.271-0.053-0.443-0.298-0.385-0.547
		c0.056-0.25,0.322-0.409,0.592-0.355l3.335,0.655C37.213,21.736,37.385,21.98,37.328,22.23z M31.514,12.526l2.858-1.711
		c0.232-0.139,0.542-0.079,0.692,0.135c0.151,0.214,0.084,0.5-0.147,0.638l-2.859,1.71c-0.231,0.139-0.541,0.079-0.691-0.135
		C31.215,12.95,31.282,12.665,31.514,12.526z M28.012,9.468l1.932-2.59C30.1,6.669,30.41,6.615,30.639,6.76
		c0.228,0.144,0.285,0.432,0.129,0.641l-1.933,2.59c-0.038,0.052-0.085,0.093-0.139,0.125c-0.164,0.098-0.384,0.102-0.556-0.007
		C27.913,9.965,27.855,9.678,28.012,9.468z M23.511,7.88l0.71-3.074c0.057-0.249,0.322-0.408,0.592-0.355
		c0.271,0.053,0.444,0.298,0.386,0.546l-0.709,3.074c-0.029,0.126-0.11,0.227-0.217,0.291c-0.107,0.064-0.242,0.092-0.376,0.064
		C23.626,8.375,23.453,8.129,23.511,7.88z M18.47,4.372c0.271-0.046,0.532,0.12,0.583,0.37l0.62,3.09
		c0.039,0.189-0.054,0.373-0.219,0.471C19.4,8.335,19.339,8.358,19.273,8.37c-0.272,0.047-0.533-0.119-0.583-0.369L18.068,4.91
		C18.019,4.66,18.198,4.419,18.47,4.372z M12.58,6.538c0.231-0.139,0.541-0.078,0.692,0.136l1.855,2.636
		c0.15,0.213,0.084,0.499-0.148,0.638c-0.23,0.139-0.54,0.078-0.69-0.136l-1.855-2.636C12.283,6.961,12.348,6.676,12.58,6.538z
		 M5.529,15.99c0.059-0.25,0.323-0.409,0.595-0.355l3.334,0.655c0.27,0.053,0.442,0.298,0.385,0.546
		c-0.028,0.125-0.11,0.227-0.217,0.291c-0.108,0.064-0.241,0.091-0.377,0.064l-3.334-0.654C5.646,16.483,5.472,16.238,5.529,15.99z
		 M5.446,21.838c-0.052-0.25,0.128-0.491,0.4-0.537l3.352-0.572c0.271-0.046,0.532,0.119,0.583,0.37
		c0.037,0.188-0.056,0.372-0.221,0.471c-0.053,0.032-0.113,0.055-0.181,0.066l-3.352,0.573C5.758,22.255,5.496,22.089,5.446,21.838z
		 M11.345,25.693l-2.859,1.712c-0.231,0.139-0.541,0.078-0.691-0.136c-0.15-0.215-0.085-0.499,0.147-0.639l2.858-1.71
		c0.232-0.139,0.542-0.079,0.693,0.135C11.644,25.27,11.577,25.555,11.345,25.693z M11.668,12.921
		c-0.038,0.052-0.086,0.094-0.14,0.126c-0.165,0.099-0.384,0.102-0.556-0.007l-2.81-1.781c-0.227-0.144-0.285-0.432-0.129-0.641
		c0.157-0.21,0.469-0.263,0.695-0.118l2.81,1.779C11.767,12.425,11.824,12.712,11.668,12.921z M14.846,28.75l-1.931,2.591
		c-0.038,0.052-0.086,0.094-0.14,0.126c-0.164,0.099-0.384,0.102-0.556-0.008c-0.229-0.144-0.286-0.431-0.129-0.641l1.931-2.591
		c0.156-0.209,0.469-0.262,0.696-0.117S15.003,28.541,14.846,28.75z M19.349,30.341l-0.711,3.073
		c-0.027,0.125-0.109,0.226-0.217,0.291c-0.107,0.063-0.241,0.091-0.377,0.063c-0.271-0.053-0.441-0.298-0.385-0.547l0.71-3.073
		c0.059-0.251,0.323-0.409,0.594-0.355C19.234,29.846,19.406,30.091,19.349,30.341z M27.031,36.47l0.007-0.02l-1.683-2.39
		l-0.919-1.307l-0.92-1.307c-0.071-0.101-0.09-0.216-0.07-0.324c-0.769-0.819-2.266-2.314-3.079-2.705
		c-0.269-0.129-0.545-0.259-0.826-0.39c-2.118-0.991-4.519-2.114-5.897-4.073c-2.817-4.004-1.577-9.377,2.766-11.976
		c4.344-2.6,10.171-1.456,12.99,2.549c1.378,1.958,1.513,4.437,1.632,6.623c0.017,0.292,0.032,0.576,0.05,0.855
		c0.056,0.845,0.927,2.714,1.425,3.695c0.116,0.028,0.223,0.091,0.293,0.191L33.72,27.2l0.92,1.306l1.689,2.401l-0.023,0.004
		l2.257,12.578L27.031,36.47z"/>
	<polygon points="32.992,31.258 31.953,34.113 28.7,33.826 27.84,36.187 34.13,40.016 36.962,38.32 35.738,31.501 	"/>
</g>
</svg>
